# xmcd
#
# Track frame offsets:
# 150
# 13720
# 25938
# 39706
# 54575
# 68607
# 80739
# 94339
# 107208
# 121589
# 135493
# 146525
#
# Disc length: 2136 seconds
#
#
# Revision: 1
# Processed by: cddbd v1.5.1PL0 Copyright (c) Steve Scherf et al.
# Submitted via: FreeRIP 2.942 
#
DISCID=9f08560c
DTITLE=Red Sovine - Classic Narrations
DYEAR=2004
DGENRE=Country
TTITLE0=Be Careful Of Stones
TTITLE1=Please Make Up Your Mind
TTITLE2=Beyond The Sunset
TTITLE3=I've Been Down That Road Before
TTITLE4=Too Many Parties And Too Many Pals
TTITLE5=Men With Broken Hearts
TTITLE6=Picture From Life's Other Side
TTITLE7=Everything's Okay
TTITLE8=I Dreamed About Mama Last Night
TTITLE9=Help Me Understand
TTITLE10=Just Waitin'
TTITLE11=Steal Away
EXTD=King Records
EXTT0=
EXTT1=
EXTT2=
EXTT3=
EXTT4=
EXTT5=
EXTT6=
EXTT7=
EXTT8=
EXTT9=
EXTT10=
EXTT11=
PLAYORDER=
